<svg xmlns="http://www.w3.org/2000/svg" width="48" height="48">
   <path fill="#fff" d="M0 0h48v48H0z" />
   <path opacity=".485" fill="#007b00" d="M-124.174 8H-65v4h-59.174z" />
   <path d="M-49.174 10l-30 15V-5l30 15zM-79.174 30v13h-45v4h45v13l30-15-30-15z" opacity=".485" fill="#007b00" />
   <path d="M-94.174 53v13H-52v4h-42.174v13l-30-15 30-15z" opacity=".485" fill="#007b00" />
   <path d="M26.965 22.516l-7.106-3.569L8.283 42l-2.187-1.098 11.576-23.053-7.106-3.568L27 2l-.035 20.516z" fill="#235" />
   <path d="M21.035 25.484l7.106 3.569L39.717 6l2.187 1.098-11.576 23.053 7.106 3.568L21 46l.035-20.516z" opacity=".485" fill="#007b00" />
   <path d="M21.063 35.747c0-5.58.018-10.147.039-10.147s1.614.788 3.54 1.752l3.502 1.751 2.627-5.201c1.445-2.861 4.042-8.032 5.77-11.492 1.728-3.46 3.159-6.307 3.18-6.328.045-.048 2.08 1.004 2.08 1.076 0 .03-2.581 5.193-5.737 11.476-3.155 6.283-5.748 11.448-5.761 11.48-.014.03 1.57.854 3.52 1.83l3.545 1.776-7.86 5.871c-4.322 3.229-7.99 5.968-8.152 6.087l-.293.216V35.747z" fill="#235" />
   <path d="M45 39v6h-6v3h9v-9h-3zM3 9V3h6V0H0v9h3z" fill="red" />
</svg>